<mxfile host="app.diagrams.net" modified="2022-08-25T03:00:27.866Z" agent="5.0 (Macintosh; Intel Mac OS X 10_15_7) AppleWebKit/537.36 (KHTML, like Gecko) Chrome/104.0.0.0 Safari/537.36" etag="baxZbGxdIYb-qNEPkmWY" version="20.2.4" type="github">
  <diagram id="34gEDbwSAV2CHKxa62Un" name="Page-1">
    <mxGraphModel dx="1426" dy="793" grid="1" gridSize="10" guides="1" tooltips="1" connect="1" arrows="1" fold="1" page="1" pageScale="1" pageWidth="850" pageHeight="1100" math="0" shadow="0">
      <root>
        <mxCell id="0" />
        <mxCell id="1" parent="0" />
        <mxCell id="Zv3RVMpp4k9CW0P9K5x8-1" value="Functional Requirement:&lt;br&gt;1. User should able to create a short URL from a given URL.&lt;br&gt;2. Short URL link can be customised.&lt;br&gt;3. Using short URL, system should redirect to original URL&lt;br&gt;4. Link should be expire after a timespan. User can define timespan.&lt;br&gt;" style="text;html=1;strokeColor=none;fillColor=none;align=left;verticalAlign=middle;whiteSpace=wrap;rounded=0;" vertex="1" parent="1">
          <mxGeometry x="90" y="20" width="330" height="90" as="geometry" />
        </mxCell>
        <mxCell id="Zv3RVMpp4k9CW0P9K5x8-3" value="Non Functional Requirement:&lt;br&gt;1. System should be highly available. Redirection should not be failed.&lt;br&gt;2. Redirection should be with very low latency.&lt;br&gt;3. Short URL name should be guessable&lt;br&gt;4. Analytics" style="text;html=1;strokeColor=none;fillColor=none;align=left;verticalAlign=middle;whiteSpace=wrap;rounded=0;" vertex="1" parent="1">
          <mxGeometry x="90" y="120" width="310" height="80" as="geometry" />
        </mxCell>
        <mxCell id="Zv3RVMpp4k9CW0P9K5x8-4" value="Trafic Estimation:&lt;br&gt;Assume read and write ratio of URL is 100:1. 500M URL created per month&lt;br&gt;Total Read per month = 500M * 100 = 50,000,000,000 = 50B&lt;br&gt;Total Write per second = 500,000,000/30*24*3600&amp;nbsp; = 200URL/s&lt;br&gt;Total Trafic per second = 100*200 = 20000URL/s = 20K URL /s&lt;br&gt;Storage Estimation:&lt;br&gt;Let say 1 URL store for 5 years and 1 url take 500KB space.&lt;br&gt;Total space required for 5 years = 500M * 12*5 * 500= 15,000,000,000,000 = 15TB&amp;nbsp;&lt;br&gt;" style="text;html=1;strokeColor=none;fillColor=none;align=left;verticalAlign=middle;whiteSpace=wrap;rounded=0;" vertex="1" parent="1">
          <mxGeometry x="440" y="30" width="410" height="140" as="geometry" />
        </mxCell>
      </root>
    </mxGraphModel>
  </diagram>
</mxfile>
